<svg xmlns="http://www.w3.org/2000/svg" viewBox="0 0 60 60"><defs><style>.cls-1{fill:#3ebbdd;}</style></defs><title>Snow</title><g id="Layer_2" data-name="Layer 2"><g id="Layer_1-2" data-name="Layer 1"><path class="cls-1" d="M30,25a5,5,0,1,0,5,5,5,5,0,0,0-5-5Zm0,8a3,3,0,1,1,3-3,3,3,0,0,1-3,3Z"/><path class="cls-1" d="M57,27a3,3,0,0,0-2.82,2H51.62l1.27-2.56a1,1,0,0,0-1.78-.89L49.38,29h-1.9l1.45-3.63a1,1,0,0,0-1.86-.74L45.32,29H38.94A8.89,8.89,0,0,0,37,24.39l1.84-1.84,4.33,1.85a1,1,0,0,0,.77,0,1,1,0,0,0,.54-.53A1,1,0,0,0,44,22.57L40.39,21l1.34-1.35,3.66,1.22A1,1,0,1,0,46,19l-2.7-.9,1.81-1.81a3,3,0,0,0,1.28.3,3,3,0,0,0,2.13-.88,3,3,0,0,0,0-4.25,3.09,3.09,0,0,0-4.25,0,3,3,0,0,0-.88,2.13,2.94,2.94,0,0,0,.3,1.28L41.9,16.69,41,14a1,1,0,0,0-1.9.63l1.22,3.66L39,19.61,37.43,16a1,1,0,0,0-1.31-.51,1,1,0,0,0-.53,1.3l1.86,4.33L35.61,23A8.89,8.89,0,0,0,31,21.06V14.68l4.37-1.75a1,1,0,0,0,.54-1.29,1,1,0,0,0-1.28-.57L31,12.52v-1.9l3.44-1.73a1,1,0,1,0-.89-1.78L31,8.38V5.82a3,3,0,1,0-2,0V8.38L26.44,7.11a1,1,0,0,0-.89,1.78L29,10.62v1.9l-3.63-1.45a1,1,0,0,0-.74,1.86L29,14.68v6.38A8.89,8.89,0,0,0,24.39,23l-1.84-1.84,1.85-4.33A1,1,0,1,0,22.57,16L21,19.61l-1.35-1.34,1.22-3.66A1,1,0,1,0,19,14l-.9,2.7-1.81-1.81a3,3,0,0,0,.3-1.28,3,3,0,0,0-.88-2.13,3.09,3.09,0,0,0-4.25,0,3,3,0,0,0,0,4.25,3,3,0,0,0,2.13.88,3,3,0,0,0,1.28-.3l1.81,1.81L14,19a1,1,0,0,0-.62,1.26,1,1,0,0,0,1.25.64l3.66-1.22L19.61,21,16,22.57a1,1,0,0,0,.79,1.83l4.33-1.85L23,24.39A9,9,0,0,0,21.06,29H14.68l-1.75-4.37a1,1,0,1,0-1.86.74L12.52,29h-1.9L8.89,25.56a1,1,0,1,0-1.78.89L8.38,29H5.82a3,3,0,1,0,0,2H8.38L7.11,33.56a1,1,0,0,0,1,1.44,1,1,0,0,0,.83-.56L10.62,31h1.9l-1.45,3.63a1,1,0,1,0,1.86.74L14.68,31h6.38A8.89,8.89,0,0,0,23,35.61l-1.84,1.84L16.81,35.6A1,1,0,0,0,16,37.43L19.61,39l-1.34,1.35L14.61,39.1A1,1,0,1,0,14,41l2.7.9-1.82,1.82a3.1,3.1,0,0,0-3.4.57,3,3,0,0,0-.87,2.12,3,3,0,1,0,6,0,3,3,0,0,0-.3-1.28l1.81-1.81L19,46a1,1,0,0,0,.75.69,1,1,0,0,0,1-.32,1,1,0,0,0,.19-1l-1.22-3.66L21,40.39,22.57,44a1.05,1.05,0,0,0,.54.54,1,1,0,0,0,.77,0,1,1,0,0,0,.53-.54,1,1,0,0,0,0-.77l-1.85-4.33L24.39,37A8.89,8.89,0,0,0,29,38.94v6.38l-4.37,1.75a1,1,0,0,0-.54,1.29,1,1,0,0,0,1.28.57L29,47.48v1.9l-3.44,1.73a1,1,0,1,0,.89,1.78L29,51.62v2.56a3,3,0,1,0,2,0V51.62l2.56,1.27a1,1,0,0,0,.89-1.78L31,49.38v-1.9l3.63,1.45a1,1,0,0,0,.74-1.86L31,45.32V38.94A8.89,8.89,0,0,0,35.61,37l1.84,1.84L35.6,43.19a1,1,0,1,0,1.83.79L39,40.39l1.35,1.34L39.1,45.39a1,1,0,0,0,.19,1,1,1,0,0,0,1,.32A1,1,0,0,0,41,46l.9-2.7,1.81,1.81a3,3,0,0,0-.3,1.28,3,3,0,0,0,.88,2.13,3,3,0,0,0,5.12-2.13,3,3,0,0,0-.87-2.11,3.08,3.08,0,0,0-3.4-.57L43.32,41.9,46,41a1,1,0,0,0-.63-1.89l-3.66,1.21L40.39,39,44,37.44a1,1,0,0,0-.79-1.84l-4.33,1.85L37,35.61A8.89,8.89,0,0,0,38.94,31h6.38l1.75,4.37a1,1,0,1,0,1.86-.74L47.48,31h1.9l1.73,3.44a1,1,0,0,0,.57.51.92.92,0,0,0,.76-.06,1,1,0,0,0,.45-1.33L51.62,31h2.56A3,3,0,1,0,57,27ZM45.71,12.88a1,1,0,0,1,.7-.29,1,1,0,1,1-.7,1.7,1,1,0,0,1,0-1.41ZM30,2a1,1,0,1,1-1,1,1,1,0,0,1,1-1ZM12.88,14.29a1,1,0,1,1,1.41,0,1,1,0,0,1-1.41,0ZM3,31a1,1,0,0,1,0-2,1,1,0,0,1,0,2ZM14.29,47.12a1,1,0,1,1-1.38-1.38,1,1,0,1,1,1.38,1.38ZM30,58a1,1,0,1,1,1-1,1,1,0,0,1-1,1Zm0-21a7,7,0,1,1,7-7,7,7,0,0,1-7,7Zm17.12,8.71a1,1,0,0,1,0,1.41,1,1,0,0,1-1.41,0A1,1,0,0,1,45.49,46a1,1,0,0,1,.92-.62,1,1,0,0,1,.71.3ZM57,31a1,1,0,1,1,1-1,1,1,0,0,1-1,1Z"/></g></g></svg>