<svg xmlns="http://www.w3.org/2000/svg" xmlns:xlink="http://www.w3.org/1999/xlink" viewBox="0 0 60 58"><defs><style>.cls-1{fill:none;}.cls-2{clip-path:url(#clip-path);}.cls-3{fill:#3ebbdd;}.cls-4{fill:#ccc;}.cls-5{fill:#38a8c7;}</style><clipPath id="clip-path"><rect class="cls-1" width="60" height="58"/></clipPath></defs><title>Fog</title><g id="Layer_2" data-name="Layer 2"><g id="Layer_1-2" data-name="Layer 1"><g class="cls-2"><path class="cls-3" d="M48,12v0A12,12,0,0,0,24.75,7.82,10,10,0,0,0,9,16v.18a11,11,0,1,0,9.93,18.44,12,12,0,0,0,21.38,1.51A12.82,12.82,0,0,0,47,38a13,13,0,0,0,1-26Z"/></g><rect class="cls-4" x="10" y="44" width="18" height="2"/><rect class="cls-4" x="10" y="48" width="18" height="2"/><rect class="cls-4" x="10" y="52" width="18" height="2"/><rect class="cls-4" x="10" y="56" width="18" height="2"/><rect class="cls-4" x="32" y="44" width="18" height="2"/><rect class="cls-4" x="42" y="48" width="8" height="2"/><rect class="cls-4" x="38" y="48" width="2" height="2"/><rect class="cls-4" x="32" y="48" width="4" height="2"/><rect class="cls-4" x="32" y="52" width="18" height="2"/><rect class="cls-4" x="32" y="56" width="18" height="2"/><path class="cls-5" d="M55.92,15.57C52.06,24.44,38.34,31,22,31A52.13,52.13,0,0,1,0,26.45c0,.18,0,.37,0,.55a11,11,0,0,0,18.93,7.62,12,12,0,0,0,21.38,1.51A12.82,12.82,0,0,0,47,38a13,13,0,0,0,8.92-22.43Z"/></g></g></svg>