<svg xmlns="http://www.w3.org/2000/svg" xmlns:xlink="http://www.w3.org/1999/xlink" viewBox="0 0 60 60"><defs><style>.cls-1{fill:none;}.cls-2{fill:#fbb03b;}.cls-3{clip-path:url(#clip-path);}.cls-4{fill:#e6e6e6;}.cls-5{fill:#ccc;}</style><clipPath id="clip-path" transform="translate(0 0)"><rect class="cls-1" width="60" height="60"/></clipPath></defs><title>Lightning</title><g id="Layer_2" data-name="Layer 2"><g id="Layer_1-2" data-name="Layer 1"><path class="cls-2" d="M30,60a1,1,0,0,1-.86-.5,1,1,0,0,1,0-1L32.28,53H28a1,1,0,0,1-.86-.5,1,1,0,0,1,0-1l4-7A1,1,0,0,1,32,44a1,1,0,0,1,.88.5,1,1,0,0,1,0,1L29.72,51H34a1,1,0,0,1,.86.5,1,1,0,0,1,0,1l-4,7A1,1,0,0,1,30,60Z" transform="translate(0 0)"/><path class="cls-2" d="M43,60a1,1,0,0,1-.86-.5,1,1,0,0,1,0-1L45.28,53H41a1,1,0,0,1-.86-.5,1,1,0,0,1,0-1l4-7A1,1,0,0,1,45,44a1,1,0,0,1,.88.5,1,1,0,0,1,0,1L42.72,51H47a1,1,0,0,1,.86.5,1,1,0,0,1,0,1l-4,7A1,1,0,0,1,43,60Z" transform="translate(0 0)"/><g class="cls-3"><path class="cls-2" d="M17,60a1,1,0,0,1-.86-.5,1,1,0,0,1,0-1L19.28,53H15a1,1,0,0,1-.86-.5,1,1,0,0,1,0-1l4-7A1,1,0,0,1,19,44a1,1,0,0,1,.88.5,1,1,0,0,1,0,1L16.72,51H21a1,1,0,0,1,.86.5,1,1,0,0,1,0,1l-4,7A1,1,0,0,1,17,60Z" transform="translate(0 0)"/><path class="cls-4" d="M47.64,16a12.8,12.8,0,0,0-.07-6.3,13,13,0,0,0-22.4-5.2,10.2,10.2,0,0,0-4.42-.44,10,10,0,0,0-8.4,7.33A9.76,9.76,0,0,0,12.21,16,12.89,12.89,0,0,0,0,28.88v.24A12.9,12.9,0,0,0,12.88,42H47.12A12.9,12.9,0,0,0,60,29.12v-.24A12.9,12.9,0,0,0,47.64,16Z" transform="translate(0 0)"/></g><path class="cls-5" d="M55.72,19.31A12.8,12.8,0,0,1,57,24.88v.24A12.9,12.9,0,0,1,44.12,38H9.88a12.83,12.83,0,0,1-8.6-3.32A12.89,12.89,0,0,0,12.88,42H47.12A12.9,12.9,0,0,0,60,29.12v-.24a12.85,12.85,0,0,0-4.28-9.57Z" transform="translate(0 0)"/></g></g></svg>