<svg xmlns="http://www.w3.org/2000/svg" viewBox="0 0 60 50.75"><defs><style>.cls-1{fill:#fbb03b;}.cls-2{fill:#e6e6e6;}.cls-3{fill:#ccc;}</style></defs><title>Cloudy-night</title><g id="Layer_2" data-name="Layer 2"><g id="Layer_1-2" data-name="Layer 1"><path class="cls-1" d="M31.19,10A15.69,15.69,0,0,0,23.48.86,1,1,0,0,0,22.56,0a1,1,0,0,0-1,.73A1,1,0,0,0,22,1.88,14.87,14.87,0,0,1,21.83,7,15.1,15.1,0,0,1,7.16,18.85a14.89,14.89,0,0,1-3-.3,15.71,15.71,0,0,1-2.1-.61,1,1,0,0,0-1,.2,1,1,0,0,0-.29,1,15.5,15.5,0,0,0,6.08,8.76,1,1,0,0,0,1,.07,10.93,10.93,0,0,1,5-1.21H22a1,1,0,0,0,1-1V21.63a10.84,10.84,0,0,1,7.54-10.35A1,1,0,0,0,31.19,10Z"/><path class="cls-2" d="M47.12,23.75H47V21.63A12.9,12.9,0,0,0,34.12,8.75h-.24A12.9,12.9,0,0,0,21,21.63v3.12H12.88A12.9,12.9,0,0,0,0,37.63v.24A12.89,12.89,0,0,0,12.88,50.75H47.12A12.89,12.89,0,0,0,60,37.87V36.63A12.9,12.9,0,0,0,47.12,23.75Z"/><path class="cls-3" d="M54.86,26.36A12.78,12.78,0,0,1,56,31.63v1.24A12.89,12.89,0,0,1,43.12,45.75H8.88a12.83,12.83,0,0,1-7.74-2.61,12.89,12.89,0,0,0,11.74,7.61H47.12A12.89,12.89,0,0,0,60,37.87V36.63a12.88,12.88,0,0,0-5.14-10.27Z"/></g></g></svg>