<svg xmlns="http://www.w3.org/2000/svg" viewBox="0 0 60 54"><defs><style>.cls-1{fill:#fbb03b;}.cls-2{fill:#e6e6e6;}.cls-3{fill:#cfcfcf;}</style></defs><title>Cloudy-day</title><g id="Layer_2" data-name="Layer 2"><g id="Layer_1-2" data-name="Layer 1"><path class="cls-1" d="M30.67,13.31A13,13,0,1,0,11.86,29.86a1,1,0,0,0,.55.16H22a1,1,0,0,0,1-1V24.88a10.92,10.92,0,0,1,7.12-10.2,1,1,0,0,0,.58-.56,1,1,0,0,0,0-.81Z"/><path class="cls-1" d="M19,4a1,1,0,0,1-1-1V1a1,1,0,0,1,2,0V3a1,1,0,0,1-1,1Z"/><path class="cls-1" d="M30.31,8.69a1,1,0,0,1-.92-.62A1,1,0,0,1,29.61,7L31,5.57A1,1,0,1,1,32.43,7L31,8.39a1,1,0,0,1-.71.3Z"/><path class="cls-1" d="M3,20H1a1,1,0,0,1,0-2H3a1,1,0,0,1,0,2Z"/><path class="cls-1" d="M7.69,8.69A1,1,0,0,1,7,8.39L5.57,7A1,1,0,0,1,7,5.57L8.39,7a1,1,0,0,1,.22,1.09,1,1,0,0,1-.92.62Z"/><path class="cls-2" d="M47.12,27H47V24.88A12.9,12.9,0,0,0,34.12,12h-.24A12.9,12.9,0,0,0,21,24.88V28H12.88A12.9,12.9,0,0,0,0,40.88v.24A12.9,12.9,0,0,0,12.88,54H47.12A12.9,12.9,0,0,0,60,41.12V39.88A12.9,12.9,0,0,0,47.12,27Z"/><path class="cls-3" d="M58,33A15.48,15.48,0,0,1,42.54,48.4H2.27A12.85,12.85,0,0,0,12.88,54H47.12A12.9,12.9,0,0,0,60,41.12V39.88A12.82,12.82,0,0,0,58,33Z"/></g></g></svg>