<svg xmlns="http://www.w3.org/2000/svg" viewBox="0 0 60 36"><defs><style>.cls-1{fill:#3ebbdd;}</style></defs><title>Windy</title><g id="Layer_2" data-name="Layer 2"><g id="Layer_1-2" data-name="Layer 1"><path class="cls-1" d="M43,10H0V8H43a3,3,0,0,0,3-3A3,3,0,1,0,40,5V6H38V5A5,5,0,0,1,48,5a5,5,0,0,1-5,5Z"/><path class="cls-1" d="M46,36a5,5,0,0,1-5-5V30h2v1a3,3,0,0,0,3,3A3,3,0,1,0,46,28H0V26H46a5,5,0,0,1,0,10Z"/><rect class="cls-1" x="24" y="4" width="12" height="2"/><rect class="cls-1" x="20" y="4" width="2" height="2"/><rect class="cls-1" y="4" width="18" height="2"/><rect class="cls-1" y="30" width="39" height="2"/><rect class="cls-1" x="43" y="20" width="12" height="2"/><rect class="cls-1" x="39" y="20" width="2" height="2"/><rect class="cls-1" y="20" width="37" height="2"/><path class="cls-1" d="M55,16H0V14H55a3,3,0,0,0,3-3V10a3,3,0,0,0-3-3,3,3,0,0,0-3,3v2H50V10a5,5,0,0,1,10,0V11a5,5,0,0,1-5,5Z"/></g></g></svg>