<svg xmlns="http://www.w3.org/2000/svg" viewBox="0 0 60 60"><defs><style>.cls-1{fill:#3ebbdd;}.cls-2{fill:#e6e6e6;}.cls-3{fill:#ccc;}</style></defs><title>Rain</title><g id="Layer_2" data-name="Layer 2"><g id="Layer_1-2" data-name="Layer 1"><path class="cls-1" d="M14.12,48a1,1,0,0,1-1-1.18l.35-2a1,1,0,0,1,1.16-.8,1,1,0,0,1,.81,1.16l-.35,2a1,1,0,0,1-1,.82Z"/><path class="cls-1" d="M13.06,54a1,1,0,0,1-1-1.18l.36-2a1,1,0,0,1,2,.36l-.35,2a1,1,0,0,1-1,.82Z"/><path class="cls-1" d="M12,60a1,1,0,0,1-.77-.36,1,1,0,0,1-.21-.82l.35-2A1,1,0,0,1,12.52,56a1,1,0,0,1,.82,1.14l-.36,2A1,1,0,0,1,12,60Z"/><path class="cls-1" d="M22.65,48a1,1,0,0,1-1-1.18l.36-2a1,1,0,0,1,2,.36l-.35,2a1,1,0,0,1-1,.82Z"/><path class="cls-1" d="M21.59,54a1,1,0,0,1-.77-.36,1,1,0,0,1-.21-.82l.35-2A1,1,0,0,1,22.11,50a1,1,0,0,1,.82,1.14l-.36,2a1,1,0,0,1-1,.82Z"/><path class="cls-1" d="M20.53,60a1,1,0,0,1-1-1.18l.35-2a1,1,0,0,1,.64-.78,1,1,0,0,1,1,.18,1,1,0,0,1,.33,1l-.35,2a1,1,0,0,1-1,.82Z"/><path class="cls-1" d="M30.88,48a1,1,0,0,1-.76-.36,1,1,0,0,1-.22-.82l.35-2a1,1,0,0,1,2,.36l-.35,2a1,1,0,0,1-1,.82Z"/><path class="cls-1" d="M29.82,54a1,1,0,0,1-.76-.36,1,1,0,0,1-.22-.82l.35-2a1,1,0,0,1,2,.36l-.35,2a1,1,0,0,1-1,.82Z"/><path class="cls-1" d="M28.77,60a1,1,0,0,1-1-1.18l.35-2a1,1,0,0,1,.64-.78,1,1,0,0,1,1,.18,1,1,0,0,1,.33,1l-.35,2a1,1,0,0,1-1,.82Z"/><path class="cls-1" d="M39.12,48a1,1,0,0,1-1-1.18l.35-2a1,1,0,0,1,2,.36l-.35,2a1,1,0,0,1-1,.82Z"/><path class="cls-1" d="M38.06,54a1,1,0,0,1-1-1.18l.36-2a1,1,0,0,1,.64-.78,1,1,0,0,1,1,.18,1,1,0,0,1,.33,1l-.35,2a1,1,0,0,1-1,.82Z"/><path class="cls-1" d="M37,60a1,1,0,0,1-.77-.36,1,1,0,0,1-.21-.82l.35-2A1,1,0,0,1,37,56a1,1,0,0,1,1,.18,1,1,0,0,1,.34,1l-.36,2A1,1,0,0,1,37,60Z"/><path class="cls-1" d="M47.65,48a1,1,0,0,1-1-1.18l.36-2a1,1,0,0,1,2,.36l-.35,2a1,1,0,0,1-1,.82Z"/><path class="cls-1" d="M46.59,54a1,1,0,0,1-.77-.36,1,1,0,0,1-.21-.82l.35-2A1,1,0,0,1,46.6,50a1,1,0,0,1,1,.18,1,1,0,0,1,.34,1l-.36,2a1,1,0,0,1-1,.82Z"/><path class="cls-1" d="M45.53,60a1,1,0,0,1-1-1.18l.35-2A1,1,0,0,1,46.06,56a1,1,0,0,1,.81,1.14l-.35,2a1,1,0,0,1-1,.82Z"/><path class="cls-2" d="M52.75,20.1A9.28,9.28,0,0,0,53,18a9,9,0,0,0-8.64-9A13,13,0,0,0,21.54,5.29a11.39,11.39,0,0,0-5.71.16A11.45,11.45,0,0,0,8.09,20.1,9.44,9.44,0,0,0,0,29.44v3A9.53,9.53,0,0,0,9.52,42H51.41A8.6,8.6,0,0,0,60,33.41v-4.9a8.54,8.54,0,0,0-7.25-8.41Z"/><path class="cls-3" d="M56.5,21.66a8.41,8.41,0,0,1,.5,2.85v4.9A8.6,8.6,0,0,1,48.41,38H6.52A9.43,9.43,0,0,1,.68,36a9.52,9.52,0,0,0,8.84,6H51.41A8.6,8.6,0,0,0,60,33.41v-4.9a8.47,8.47,0,0,0-3.5-6.85Z"/></g></g></svg>