<svg xmlns="http://www.w3.org/2000/svg" viewBox="0 0 60 60"><defs><style>.cls-1{fill:#fbb03b;}.cls-2{fill:#e29e35;}</style></defs><title>Asset 1</title><g id="Layer_2" data-name="Layer 2"><g id="Layer_1-2" data-name="Layer 1"><path class="cls-1" d="M30,5a1,1,0,0,1-1-1V1a1,1,0,0,1,2,0V4a1,1,0,0,1-1,1Z"/><path class="cls-1" d="M48.39,12.61a1,1,0,0,1-.71-1.7L49.8,8.79a1,1,0,0,1,1.41,1.41l-2.12,2.12a1,1,0,0,1-.7.29Z"/><path class="cls-1" d="M59,31H56a1,1,0,0,1,0-2h3a1,1,0,0,1,0,2Z"/><path class="cls-1" d="M50.51,51.51a1,1,0,0,1-.71-.3l-2.12-2.12a1,1,0,0,1,1.41-1.41l2.12,2.12a1,1,0,0,1,.22,1.09,1,1,0,0,1-.92.62Z"/><path class="cls-1" d="M30,60a1,1,0,0,1-1-1V56a1,1,0,0,1,2,0v3a1,1,0,0,1-1,1Z"/><path class="cls-1" d="M9.49,51.51a1,1,0,0,1-.92-.62,1,1,0,0,1,.22-1.09l2.12-2.12a1,1,0,0,1,1.41,1.41L10.2,51.21a1,1,0,0,1-.71.3Z"/><path class="cls-1" d="M4,31H1a1,1,0,0,1,0-2H4a1,1,0,0,1,0,2Z"/><path class="cls-1" d="M11.61,12.61a1,1,0,0,1-.7-.29L8.79,10.2A1,1,0,0,1,10.2,8.79l2.12,2.12a1,1,0,0,1-.71,1.7Z"/><path class="cls-1" d="M30,5a1,1,0,0,1-1-1V1a1,1,0,0,1,2,0V4a1,1,0,0,1-1,1Z"/><path class="cls-1" d="M48.39,12.61a1,1,0,0,1-.71-1.7L49.8,8.79a1,1,0,0,1,1.41,1.41l-2.12,2.12a1,1,0,0,1-.7.29Z"/><path class="cls-1" d="M59,31H56a1,1,0,0,1,0-2h3a1,1,0,0,1,0,2Z"/><path class="cls-1" d="M50.51,51.51a1,1,0,0,1-.71-.3l-2.12-2.12a1,1,0,0,1,1.41-1.41l2.12,2.12a1,1,0,0,1,.22,1.09,1,1,0,0,1-.92.62Z"/><path class="cls-1" d="M30,60a1,1,0,0,1-1-1V56a1,1,0,0,1,2,0v3a1,1,0,0,1-1,1Z"/><path class="cls-1" d="M9.49,51.51a1,1,0,0,1-.92-.62,1,1,0,0,1,.22-1.09l2.12-2.12a1,1,0,0,1,1.41,1.41L10.2,51.21a1,1,0,0,1-.71.3Z"/><path class="cls-1" d="M4,31H1a1,1,0,0,1,0-2H4a1,1,0,0,1,0,2Z"/><path class="cls-1" d="M11.61,12.61a1,1,0,0,1-.7-.29L8.79,10.2A1,1,0,0,1,10.2,8.79l2.12,2.12a1,1,0,0,1-.71,1.7Z"/><path class="cls-1" d="M39.94,7a1,1,0,0,1-.83-.44A1,1,0,0,1,39,5.59l1.14-2.77A1,1,0,1,1,42,3.59L40.87,6.35a1,1,0,0,1-.93.62Z"/><path class="cls-1" d="M54,21a1,1,0,0,1-1-.81,1,1,0,0,1,.6-1.11L56.41,18a1,1,0,0,1,1.27.55,1,1,0,0,1-.51,1.3L54.41,21A.88.88,0,0,1,54,21Z"/><path class="cls-1" d="M56.8,42.09a1,1,0,0,1-.39-.08l-2.77-1.14A1,1,0,0,1,54.41,39l2.77,1.14a1,1,0,0,1,.6,1.13,1,1,0,0,1-1,.8Z"/><path class="cls-1" d="M41.11,57.79a1,1,0,0,1-.93-.62L39,54.4a1,1,0,0,1,.55-1.27,1,1,0,0,1,1.3.51L42,56.41a1,1,0,0,1-.09.93,1,1,0,0,1-.83.45Z"/><path class="cls-1" d="M18.91,57.8a1,1,0,0,1-.83-.45,1,1,0,0,1-.09-.94l1.14-2.77a1,1,0,0,1,1.85.77l-1.14,2.77a1,1,0,0,1-.93.62Z"/><path class="cls-1" d="M3.21,42.11a1,1,0,0,1-1-.81,1,1,0,0,1,.6-1.12L5.6,39a1,1,0,0,1,.76,1.84L3.59,42a1,1,0,0,1-.38.08Z"/><path class="cls-1" d="M6,21.06A1,1,0,0,1,5.59,21L2.82,19.84A1,1,0,0,1,3.59,18l2.76,1.14A1,1,0,0,1,6,21.06Z"/><path class="cls-1" d="M20,7a1,1,0,0,1-.92-.62L18,3.59a1,1,0,0,1,.55-1.28,1,1,0,0,1,1.3.52L21,5.6a1,1,0,0,1-.09.94A1,1,0,0,1,20,7Z"/><path class="cls-1" d="M39.94,7a1,1,0,0,1-.83-.44A1,1,0,0,1,39,5.59l1.14-2.77A1,1,0,1,1,42,3.59L40.87,6.35a1,1,0,0,1-.93.62Z"/><path class="cls-1" d="M54,21a1,1,0,0,1-1-.81,1,1,0,0,1,.6-1.11L56.41,18a1,1,0,0,1,1.27.55,1,1,0,0,1-.51,1.3L54.41,21A.88.88,0,0,1,54,21Z"/><path class="cls-1" d="M56.8,42.09a1,1,0,0,1-.39-.08l-2.77-1.14A1,1,0,0,1,54.41,39l2.77,1.14a1,1,0,0,1,.6,1.13,1,1,0,0,1-1,.8Z"/><path class="cls-1" d="M41.11,57.79a1,1,0,0,1-.93-.62L39,54.4a1,1,0,0,1,.55-1.27,1,1,0,0,1,1.3.51L42,56.41a1,1,0,0,1-.09.93,1,1,0,0,1-.83.45Z"/><path class="cls-1" d="M18.91,57.8a1,1,0,0,1-.83-.45,1,1,0,0,1-.09-.94l1.14-2.77a1,1,0,0,1,1.85.77l-1.14,2.77a1,1,0,0,1-.93.62Z"/><path class="cls-1" d="M3.21,42.11a1,1,0,0,1-1-.81,1,1,0,0,1,.6-1.12L5.6,39a1,1,0,0,1,.76,1.84L3.59,42a1,1,0,0,1-.38.08Z"/><path class="cls-1" d="M6,21.06A1,1,0,0,1,5.59,21L2.82,19.84A1,1,0,0,1,3.59,18l2.76,1.14A1,1,0,0,1,6,21.06Z"/><path class="cls-1" d="M20,7a1,1,0,0,1-.92-.62L18,3.59a1,1,0,0,1,.55-1.28,1,1,0,0,1,1.3.52L21,5.6a1,1,0,0,1-.09.94A1,1,0,0,1,20,7Z"/><path class="cls-1" d="M53,30A23,23,0,1,1,30,7,23,23,0,0,1,53,30Z"/><path class="cls-2" d="M47.67,15.28A23,23,0,0,1,8.33,37.72,23,23,0,1,0,47.67,15.28Z"/></g></g></svg>